<?xml version="1.0" encoding="iso-8859-1"?>
<!-- Generator: Adobe Illustrator 18.0.0, SVG Export Plug-In . SVG Version: 6.00 Build 0)  -->
<!DOCTYPE svg PUBLIC "-//W3C//DTD SVG 1.1//EN" "http://www.w3.org/Graphics/SVG/1.1/DTD/svg11.dtd">
<svg version="1.1" id="Capa_1" xmlns="http://www.w3.org/2000/svg" xmlns:xlink="http://www.w3.org/1999/xlink" x="0px" y="0px"
	 viewBox="0 0 489.474 489.474" style="enable-background:new 0 0 489.474 489.474;" xml:space="preserve">
<g>
	<path d="M410.012,64.247C364.779,22.743,306.509,0,244.737,0C181.028,0,121.042,24.188,75.245,68.205
		c-0.016,0.016-0.036,0.025-0.052,0.042c-0.013,0.013-0.021,0.028-0.033,0.041c-1.166,1.122-2.33,2.246-3.478,3.393
		C25.457,117.907,0,179.366,0,244.737s25.457,126.83,71.682,173.055c0.973,0.973,1.962,1.923,2.948,2.877
		c0.16,0.248,0.345,0.484,0.563,0.701c0.236,0.236,0.497,0.43,0.769,0.599c45.705,43.578,105.401,67.505,168.775,67.505
		c65.372,0,126.83-25.457,173.055-71.682c46.225-46.225,71.682-107.684,71.682-173.055s-25.457-126.83-71.682-173.055
		C416.067,69.957,411.777,65.914,410.012,64.247z M402.138,68.74l-26.774,26.773c-26.002-22.79-57.14-38.181-90.541-45.038
		c-0.138-0.028-0.276-0.056-0.414-0.084c-1.382-0.28-2.768-0.547-4.158-0.799c-0.325-0.059-0.65-0.115-0.975-0.174
		c-1.211-0.212-2.424-0.414-3.641-0.604c-0.462-0.072-0.924-0.143-1.386-0.214c-1.094-0.163-2.19-0.315-3.288-0.461
		c-0.556-0.074-1.111-0.147-1.668-0.217c-1.02-0.126-2.042-0.24-3.065-0.352c-0.619-0.066-1.237-0.136-1.857-0.197
		c-0.983-0.097-1.969-0.181-2.955-0.263c-0.648-0.055-1.296-0.112-1.947-0.161c-0.992-0.072-1.985-0.131-2.98-0.19
		c-0.64-0.037-1.278-0.081-1.92-0.112c-1.081-0.054-2.165-0.089-3.25-0.124c-0.553-0.019-1.104-0.045-1.657-0.059
		c-1.639-0.04-3.281-0.063-4.925-0.063c-1.645,0-3.286,0.022-4.925,0.063c-0.554,0.014-1.104,0.04-1.657,0.059
		c-1.085,0.035-2.169,0.07-3.25,0.124c-0.642,0.031-1.28,0.075-1.92,0.112c-0.994,0.059-1.988,0.117-2.979,0.19
		c-0.65,0.049-1.298,0.106-1.947,0.161c-0.986,0.082-1.971,0.166-2.955,0.263c-0.62,0.062-1.238,0.131-1.857,0.197
		c-1.023,0.111-2.045,0.226-3.064,0.352c-0.557,0.069-1.113,0.143-1.669,0.217c-1.098,0.146-2.194,0.298-3.288,0.461
		c-0.462,0.07-0.924,0.142-1.386,0.214c-1.216,0.191-2.429,0.393-3.64,0.604c-0.326,0.059-0.651,0.115-0.976,0.175
		c-1.39,0.251-2.775,0.518-4.157,0.798c-0.138,0.028-0.276,0.056-0.415,0.084c-34.686,7.121-66.931,23.445-93.517,47.701
		L84.385,71.428C126.538,32.398,182.895,8.5,244.737,8.5C305.146,8.5,360.322,31.303,402.138,68.74z M372.169,385.323
		c-0.004,0.004-0.008,0.007-0.012,0.011c-20.902-16.786-32.372-38.454-32.372-61.354c0-42.274,39.498-78.826,94.569-88.206
		c0.139,2.971,0.217,5.958,0.217,8.963C434.571,299.59,409.495,350.634,372.169,385.323z M331.285,323.98
		c0,25.095,12.151,48.712,34.346,67.009c-10.435,8.641-21.808,16.186-33.939,22.463c-17.37-42.047-50.347-67.961-86.955-67.961
		s-69.585,25.913-86.956,67.961c-12.13-6.277-23.503-13.822-33.937-22.462c22.194-18.297,34.345-41.915,34.345-67.01
		c0-46.684-42.854-86.879-102.473-96.729c0.017-0.184,0.032-0.368,0.049-0.552c0.098-1.038,0.207-2.073,0.322-3.105
		c0.059-0.533,0.119-1.065,0.183-1.597c0.117-0.976,0.242-1.948,0.374-2.919c0.078-0.575,0.159-1.149,0.242-1.724
		c0.136-0.938,0.278-1.874,0.428-2.809c0.094-0.588,0.193-1.176,0.293-1.763c0.158-0.927,0.32-1.853,0.491-2.774
		c0.106-0.572,0.218-1.143,0.329-1.713c0.184-0.941,0.371-1.882,0.569-2.818c0.11-0.52,0.226-1.038,0.34-1.557
		c0.218-0.989,0.438-1.978,0.671-2.961c0.1-0.422,0.206-0.842,0.309-1.263c0.264-1.081,0.532-2.161,0.814-3.235
		c0.067-0.256,0.14-0.51,0.208-0.766c2.293-8.557,5.172-16.871,8.589-24.9H417.74c0.589,0,1.149-0.12,1.659-0.337
		c3.481,8.134,6.411,16.561,8.736,25.237c0.068,0.256,0.141,0.51,0.208,0.766c0.283,1.074,0.55,2.154,0.815,3.235
		c0.103,0.421,0.209,0.841,0.309,1.263c0.233,0.983,0.454,1.972,0.671,2.961c0.114,0.518,0.23,1.037,0.34,1.557
		c0.198,0.937,0.385,1.877,0.569,2.818c0.111,0.57,0.223,1.141,0.329,1.713c0.171,0.922,0.333,1.848,0.491,2.774
		c0.1,0.587,0.199,1.175,0.293,1.763c0.15,0.935,0.292,1.871,0.428,2.809c0.083,0.574,0.164,1.148,0.242,1.724
		c0.132,0.971,0.257,1.943,0.374,2.919c0.064,0.531,0.124,1.063,0.183,1.597c0.115,1.032,0.224,2.067,0.322,3.105
		c0.018,0.184,0.032,0.368,0.049,0.552C374.139,237.101,331.285,277.296,331.285,323.98z M324.038,417.191
		c-24.145,11.147-51.008,17.38-79.302,17.38c-28.294,0-55.156-6.232-79.302-17.38c15.979-39.091,46.083-63.2,79.302-63.2
		C277.956,353.991,308.06,378.1,324.038,417.191z M55.12,235.774c55.071,9.38,94.569,45.932,94.569,88.206
		c0,22.899-11.469,44.567-32.372,61.354c-38.315-34.756-62.415-84.914-62.415-140.597C54.902,241.732,54.981,238.745,55.12,235.774z
		 M227.07,55.732c1.268-0.118,2.538-0.228,3.811-0.321c0.463-0.033,0.929-0.059,1.393-0.088c1.043-0.068,2.085-0.137,3.132-0.188
		c0.785-0.038,1.574-0.062,2.361-0.09c0.753-0.028,1.503-0.064,2.258-0.082c1.566-0.038,3.136-0.06,4.711-0.06
		c1.575,0,3.144,0.021,4.71,0.06c0.754,0.018,1.505,0.054,2.258,0.082c0.788,0.028,1.576,0.052,2.361,0.09
		c1.047,0.052,2.089,0.12,3.132,0.188c0.464,0.029,0.93,0.055,1.393,0.088c1.274,0.094,2.544,0.203,3.811,0.321
		c0.204,0.019,0.409,0.035,0.613,0.055c66.846,6.479,124.296,48.101,152.655,106.509H73.802
		c28.359-58.408,85.81-100.029,152.655-106.509C226.661,55.767,226.866,55.75,227.07,55.732z M8.5,244.737
		c0-65.368,26.692-124.615,69.744-167.429l8.098,8.099c-0.178,0.129-0.355,0.261-0.516,0.421
		c-36.404,36.404-58.677,82.632-64.411,133.686c-5.565,49.55,5.623,100.125,31.502,142.409c0.802,1.31,2.198,2.032,3.629,2.032
		c0.756,0,1.522-0.202,2.215-0.626c2.002-1.226,2.631-3.842,1.406-5.844c-52.303-85.459-39.28-194.697,31.67-265.647
		c0.16-0.16,0.292-0.337,0.421-0.515l12.714,12.714c-26.734,26.546-45.139,59.743-53.48,95.954c-0.002,0.01-0.004,0.02-0.006,0.029
		c-0.338,1.469-0.66,2.941-0.964,4.418c-0.067,0.321-0.13,0.643-0.195,0.964c-0.235,1.169-0.461,2.34-0.675,3.515
		c-0.101,0.55-0.198,1.101-0.294,1.652c-0.164,0.944-0.321,1.89-0.471,2.837c-0.118,0.737-0.232,1.476-0.341,2.216
		c-0.111,0.76-0.217,1.52-0.32,2.281c-0.122,0.896-0.24,1.792-0.35,2.691c-0.072,0.597-0.138,1.194-0.206,1.792
		c-0.118,1.045-0.232,2.091-0.333,3.142c-0.041,0.424-0.075,0.85-0.113,1.273c-0.109,1.209-0.213,2.42-0.3,3.635
		c-0.003,0.039-0.007,0.077-0.01,0.116c0,0.009,0.001,0.017,0,0.024c-0.332,4.679-0.511,9.398-0.511,14.16
		c0,54.955,22.472,104.756,58.703,140.711l-26.789,26.788C35.223,369.417,8.5,310.141,8.5,244.737z M158.146,423.211
		c26.062,12.616,55.747,19.859,86.591,19.859c30.84,0,60.057-7.078,86.116-19.691c15.829-7.695,31.064-17.656,44.346-29.266
		c0.211-0.184,0.393-0.395,0.561-0.614l26.831,26.831c-41.869,37.677-97.228,60.642-157.854,60.642
		c-61.805,0-118.133-23.869-160.278-62.859l26.804-26.803c0.807,0.735,1.626,1.456,2.445,2.178c0.17,0.223,0.355,0.437,0.57,0.624
		C127.583,405.741,142.342,415.531,158.146,423.211z M408.809,414.529l-8.024-8.024c36.48-36.544,59.909-85.164,65.975-136.929
		c6.044-51.576-5.442-103.231-32.343-145.452c-1.261-1.979-3.888-2.561-5.868-1.3c-1.979,1.261-2.562,3.888-1.301,5.868
		c53.937,84.651,40.272,198.927-32.474,271.802l-12.755-12.754c37.606-36.116,61.051-86.871,61.051-143.004
		c0-4.762-0.179-9.482-0.511-14.16c0-0.008,0.001-0.016,0-0.024c-0.003-0.039-0.007-0.077-0.01-0.116
		c-0.087-1.215-0.191-2.426-0.3-3.635c-0.038-0.424-0.073-0.85-0.113-1.273c-0.102-1.051-0.216-2.097-0.333-3.142
		c-0.067-0.598-0.133-1.195-0.206-1.792c-0.11-0.899-0.229-1.796-0.35-2.691c-0.103-0.762-0.208-1.521-0.32-2.281
		c-0.109-0.74-0.224-1.479-0.341-2.216c-0.15-0.947-0.308-1.893-0.471-2.837c-0.096-0.552-0.194-1.102-0.294-1.652
		c-0.214-1.175-0.44-2.346-0.675-3.515c-0.065-0.321-0.128-0.643-0.195-0.964c-0.305-1.477-0.626-2.949-0.964-4.418
		c-0.002-0.01-0.004-0.02-0.006-0.029c-8.636-37.486-28.058-71.743-56.34-98.734l26.735-26.734
		c44.722,43.01,72.598,103.416,72.598,170.215C480.974,311.319,453.276,371.545,408.809,414.529z"/>
	<path d="M374.652,179.425H340.74c-2.347,0-4.25,1.902-4.25,4.25c0,2.348,1.903,4.25,4.25,4.25h33.912c2.347,0,4.25-1.902,4.25-4.25
		C378.902,181.328,376.999,179.425,374.652,179.425z"/>
	<path d="M295.74,179.425H78.198c-2.347,0-4.25,1.902-4.25,4.25c0,2.348,1.903,4.25,4.25,4.25H295.74c2.347,0,4.25-1.902,4.25-4.25
		C299.99,181.328,298.087,179.425,295.74,179.425z"/>
	<path d="M244.737,202.965c-23.033,0-41.771,18.738-41.771,41.772s18.739,41.771,41.771,41.771s41.771-18.738,41.771-41.771
		S267.77,202.965,244.737,202.965z M244.737,278.008c-18.346,0-33.271-14.926-33.271-33.271s14.925-33.272,33.271-33.272
		s33.271,14.926,33.271,33.272S263.083,278.008,244.737,278.008z"/>
</g>
<g>
</g>
<g>
</g>
<g>
</g>
<g>
</g>
<g>
</g>
<g>
</g>
<g>
</g>
<g>
</g>
<g>
</g>
<g>
</g>
<g>
</g>
<g>
</g>
<g>
</g>
<g>
</g>
<g>
</g>
</svg>
